<svg width="22" height="10" viewBox="0 0 22 10" fill="none" xmlns="http://www.w3.org/2000/svg">
<path d="M16.7926 0.232023C16.7268 0.305592 16.6746 0.393131 16.639 0.489568C16.6034 0.586004 16.5851 0.689399 16.5851 0.793869C16.5851 0.89834 16.6034 1.00173 16.639 1.09817C16.6746 1.19461 16.7268 1.28215 16.7926 1.35572L19.3191 4.20475L0.701798 4.20475C0.51567 4.20475 0.337132 4.28809 0.205519 4.4365C0.0739064 4.58491 -2.27901e-07 4.78624 -2.18726e-07 4.99613C-2.09552e-07 5.20601 0.0739065 5.40724 0.205519 5.55565C0.337132 5.70407 0.51567 5.7875 0.701798 5.7875L19.3191 5.7875L16.7926 8.63644C16.7268 8.71001 16.6747 8.79755 16.639 8.89398C16.6034 8.99042 16.5851 9.09381 16.5851 9.19829C16.5851 9.30276 16.6034 9.40625 16.639 9.50268C16.6747 9.59912 16.7268 9.68656 16.7926 9.76013C16.8556 9.83584 16.9317 9.89625 17.0162 9.9375C17.1007 9.97874 17.1918 10 17.2838 10C17.3759 10 17.4671 9.97874 17.5516 9.9375C17.6361 9.89625 17.7122 9.83584 17.7752 9.76013L21.5087 5.56589L22 5.01187L21.5087 4.45795L17.7752 0.247866C17.7131 0.171137 17.6378 0.109542 17.5538 0.0669281C17.4698 0.0243132 17.379 0.00156136 17.2869 7.74457e-05C17.1949 -0.00140551 17.1035 0.0184376 17.0184 0.0583298C16.9334 0.098222 16.8566 0.157324 16.7926 0.232023Z" fill="#012622"/>
</svg>
