<svg width="157" height="25" viewBox="0 0 157 25" fill="none" xmlns="http://www.w3.org/2000/svg">
<path d="M12.36 0L16.1763 7.90773L24.7143 9.17882L18.5371 15.3351L19.9983 24.0278L12.36 19.9216L4.72167 24.0278L6.17714 15.3351L0 9.17882L8.53797 7.90773L12.36 0Z" fill="#D8AD16"/>
<path d="M45.4313 0L49.2476 7.90773L57.7856 9.17882L51.6084 15.3351L53.0696 24.0278L45.4313 19.9216L37.793 24.0278L39.2484 15.3351L33.0713 9.17882L41.6093 7.90773L45.4313 0Z" fill="#D8AD16"/>
<path d="M78.5026 0L82.3189 7.90773L90.8569 9.17882L84.6797 15.3351L86.1409 24.0278L78.5026 19.9216L70.8642 24.0278L72.3197 15.3351L66.1426 9.17882L74.6806 7.90773L78.5026 0Z" fill="#D8AD16"/>
<path d="M111.574 0L115.39 7.90773L123.928 9.17882L117.751 15.3351L119.212 24.0278L111.574 19.9216L103.936 24.0278L105.391 15.3351L99.2139 9.17882L107.752 7.90773L111.574 0Z" fill="#D8AD16"/>
<path d="M144.303 0L140.375 7.90773L131.6 9.17882L137.948 15.3351L136.452 24.0278L144.303 19.9216L148.225 21.9776V7.90773L144.303 0Z" fill="#D8AD16"/>
<path d="M150.651 15.3351L157 9.17881L148.225 7.90771V21.9776L152.153 24.0278L150.651 15.3351Z" fill="#D8AD16"/>
</svg>
