<svg width="112" height="18" viewBox="0 0 112 18" fill="none" xmlns="http://www.w3.org/2000/svg">
<path d="M9.7318 0.629395L12.43 6.22023L18.4664 7.1189L14.0991 11.4715L15.1322 17.6173L9.7318 14.7142L4.33143 17.6173L5.36046 11.4715L0.993164 7.1189L7.02959 6.22023L9.7318 0.629395Z" fill="#D8AD16"/>
<path d="M33.1135 0.629333L35.8117 6.22017L41.8481 7.11884L37.4808 11.4714L38.5139 17.6172L33.1135 14.7141L27.7131 17.6172L28.7422 11.4714L24.3749 7.11884L30.4113 6.22017L33.1135 0.629333Z" fill="#D8AD16"/>
<path d="M56.4955 0.629333L59.1937 6.22017L65.2301 7.11884L60.8628 11.4714L61.8959 17.6172L56.4955 14.7141L51.0952 17.6172L52.1242 11.4714L47.7569 7.11884L53.7933 6.22017L56.4955 0.629333Z" fill="#D8AD16"/>
<path d="M79.8772 0.629333L82.5753 6.22017L88.6118 7.11884L84.2445 11.4714L85.2776 17.6172L79.8772 14.7141L74.4768 17.6172L75.5058 11.4714L71.1385 7.11884L77.175 6.22017L79.8772 0.629333Z" fill="#D8AD16"/>
<path d="M103.016 0.629333L100.239 6.22017L94.035 7.11884L98.5236 11.4714L97.466 17.6172L103.016 14.7141L105.79 16.1677V6.22017L103.016 0.629333Z" fill="#D8AD16"/>
<path d="M107.505 11.4714L111.993 7.11884L105.789 6.22017V16.1677L108.567 17.6172L107.505 11.4714Z" fill="#D8AD16"/>
</svg>
