<svg width="38" height="35" viewBox="0 0 38 35" fill="none" xmlns="http://www.w3.org/2000/svg">
<path opacity="0.5" d="M22.5359 34.0874V23.3532C22.5359 20.7327 22.6367 18.3641 22.8383 16.2475C23.1407 14.1309 23.4934 12.1655 23.8966 10.3513C24.4005 8.53706 25.0053 6.82362 25.7108 5.21098C26.4163 3.59833 27.2731 1.98569 28.281 0.373047H37.3521C35.1347 3.59834 33.4213 6.82363 32.2118 10.0489C31.0023 13.2742 30.3976 16.4995 30.3976 19.7248H36.8985V34.0874H22.5359ZM0.595215 34.0874V23.3532C0.595215 20.7327 0.696005 18.3641 0.897586 16.2475C1.19996 14.1309 1.60312 12.1655 2.10707 10.3513C2.61102 8.53706 3.21576 6.82362 3.9213 5.21098C4.62683 3.59833 5.48355 1.98569 6.49145 0.373047H15.4114C13.194 3.59834 11.4806 6.82363 10.2711 10.0489C9.0616 13.2742 8.45686 16.4995 8.45686 19.7248H14.9578V34.0874H0.595215Z" fill="#BCBCBC"/>
</svg>
