<svg width="24" height="25" viewBox="0 0 24 25" fill="none" xmlns="http://www.w3.org/2000/svg">
<path d="M24 23.6902L19.9107 19.6292C21.7467 17.6125 22.8734 14.9535 22.8734 12.0251C22.8803 5.76788 17.7479 0.670898 11.4402 0.670898C5.13243 0.670898 0 5.76788 0 12.0321C0 18.2962 5.13243 23.3932 11.4402 23.3932C14.3054 23.3932 16.9134 22.3365 18.9232 20.603L23.0194 24.6709L24 23.6902ZM1.3909 12.0321C1.3909 6.52759 5.89742 2.05219 11.4402 2.05219C16.9759 2.05219 21.4894 6.52759 21.4894 12.0321C21.4894 17.5365 16.9759 22.0119 11.4402 22.0119C5.89742 22.0119 1.3909 17.5296 1.3909 12.0321Z" fill="#1F2630"/>
</svg>
