<svg width="120" height="22" viewBox="0 0 120 22" fill="none" xmlns="http://www.w3.org/2000/svg">
<path d="M10.0473 2.38417C10.4359 1.73835 11.3722 1.73835 11.7609 2.38417L14.066 6.21452C14.2056 6.44654 14.4334 6.612 14.6972 6.6731L19.0524 7.68178C19.7867 7.85185 20.076 8.74232 19.5819 9.31152L16.6514 12.6875C16.4739 12.892 16.3869 13.1597 16.4103 13.4295L16.7968 17.8832C16.862 18.6342 16.1045 19.1845 15.4105 18.8905L11.2942 17.1466C11.0448 17.0409 10.7633 17.0409 10.514 17.1466L6.39765 18.8905C5.70361 19.1845 4.94613 18.6342 5.0113 17.8832L5.39783 13.4295C5.42124 13.1597 5.33425 12.892 5.15674 12.6875L2.22619 9.31152C1.73208 8.74232 2.02141 7.85185 2.75572 7.68178L7.11093 6.6731C7.37474 6.61201 7.60249 6.44654 7.74211 6.21452L10.0473 2.38417Z" fill="#849517"/>
<path d="M34.6665 2.3844C35.0552 1.73858 35.9915 1.73858 36.3801 2.3844L38.6853 6.21475C38.8249 6.44676 39.0527 6.61223 39.3165 6.67333L43.6717 7.68201C44.406 7.85208 44.6953 8.74255 44.2012 9.31175L41.2706 12.6877C41.0931 12.8922 41.0061 13.1599 41.0296 13.4297L41.4161 17.8835C41.4813 18.6344 40.7238 19.1847 40.0297 18.8907L35.9134 17.1468C35.6641 17.0412 35.3826 17.0412 35.1332 17.1468L31.0169 18.8907C30.3229 19.1847 29.5654 18.6344 29.6306 17.8835L30.0171 13.4297C30.0405 13.1599 29.9535 12.8922 29.776 12.6877L26.8454 9.31175C26.3513 8.74255 26.6407 7.85208 27.375 7.68201L31.7302 6.67333C31.994 6.61223 32.2217 6.44676 32.3614 6.21475L34.6665 2.3844Z" fill="#849517"/>
<path d="M59.2858 2.3844C59.6744 1.73858 60.6107 1.73858 60.9994 2.3844L63.3045 6.21475C63.4441 6.44676 63.6719 6.61223 63.9357 6.67333L68.2909 7.68201C69.0252 7.85208 69.3146 8.74255 68.8204 9.31175L65.8899 12.6877C65.7124 12.8922 65.6254 13.1599 65.6488 13.4297L66.0353 17.8835C66.1005 18.6344 65.343 19.1847 64.649 18.8907L60.5327 17.1468C60.2833 17.0412 60.0018 17.0412 59.7525 17.1468L55.6362 18.8907C54.9421 19.1847 54.1846 18.6344 54.2498 17.8835L54.6363 13.4297C54.6598 13.1599 54.5728 12.8922 54.3953 12.6877L51.4647 9.31175C50.9706 8.74255 51.2599 7.85208 51.9942 7.68201L56.3494 6.67333C56.6132 6.61223 56.841 6.44676 56.9806 6.21475L59.2858 2.3844Z" fill="#849517"/>
<path d="M83.9048 2.3844C84.2935 1.73858 85.2298 1.73858 85.6185 2.3844L87.9236 6.21475C88.0632 6.44676 88.291 6.61223 88.5548 6.67333L92.91 7.68201C93.6443 7.85208 93.9336 8.74255 93.4395 9.31175L90.509 12.6877C90.3315 12.8922 90.2445 13.1599 90.2679 13.4297L90.6544 17.8835C90.7196 18.6344 89.9621 19.1847 89.2681 18.8907L85.1517 17.1468C84.9024 17.0412 84.6209 17.0412 84.3716 17.1468L80.2552 18.8907C79.5612 19.1847 78.8037 18.6344 78.8689 17.8835L79.2554 13.4297C79.2788 13.1599 79.1918 12.8922 79.0143 12.6877L76.0838 9.31175C75.5897 8.74255 75.879 7.85208 76.6133 7.68201L80.9685 6.67333C81.2323 6.61223 81.4601 6.44676 81.5997 6.21475L83.9048 2.3844Z" fill="#849517"/>
<path d="M108.524 2.3844C108.913 1.73858 109.849 1.73858 110.238 2.3844L112.543 6.21475C112.683 6.44676 112.91 6.61223 113.174 6.67333L117.529 7.68201C118.264 7.85208 118.553 8.74255 118.059 9.31175L115.128 12.6877C114.951 12.8922 114.864 13.1599 114.887 13.4297L115.274 17.8835C115.339 18.6344 114.582 19.1847 113.888 18.8907L109.771 17.1468C109.522 17.0412 109.24 17.0412 108.991 17.1468L104.875 18.8907C104.181 19.1847 103.423 18.6344 103.488 17.8835L103.875 13.4297C103.898 13.1599 103.811 12.8922 103.634 12.6877L100.703 9.31175C100.209 8.74255 100.498 7.85208 101.233 7.68201L105.588 6.67333C105.852 6.61223 106.08 6.44676 106.219 6.21475L108.524 2.3844Z" fill="#849517"/>
</svg>
